<?xml version="1.0" encoding="UTF-8" standalone="no"?><!DOCTYPE svg PUBLIC "-//W3C//DTD SVG 1.1//EN" "http://www.w3.org/Graphics/SVG/1.1/DTD/svg11.dtd"><svg width="100%" height="100%" viewBox="0 0 596 596" version="1.1" xmlns="http://www.w3.org/2000/svg" xmlns:xlink="http://www.w3.org/1999/xlink" xml:space="preserve" xmlns:serif="http://www.serif.com/" style="fill-rule:evenodd;clip-rule:evenodd;stroke-linecap:square;stroke-miterlimit:1.5;"><path d="M187.795,82.171l-1.772,138.287l223.228,0l-31.916,-138.287l-75.295,29.051l-114.245,-29.051Z" style="fill:#065;"/><path d="M187.795,82.171l114.245,29.051l75.295,-29.051l31.916,138.287l-223.228,0l1.772,-138.287Zm44.265,57.688l-0.456,35.6l121.079,0l-7.532,-32.636l-40.297,15.547l-72.794,-18.51Z" style="fill:#065;"/><path d="M169.886,253.6l-125.843,88.075l521.499,0l-133.85,-87.122l-261.807,-0.953Z" style="fill:#065;"/><path d="M169.886,253.6l261.807,0.953l133.85,87.122l-521.499,0l125.843,-88.075Z" style="fill:#065;"/><path d="M297.638,398.229l63.558,8.858" style="fill:none;stroke:#065;stroke-width:45px;"/><path d="M279.908,551.477l-107.032,-13.287l-107.185,-83.268l181.594,-64.665l69.094,0.886l-87.85,57.579l-7.82,49.606l59.198,53.15Z" style="fill:#065;"/><path d="M316.38,391.143l114.272,16.831l98.934,69.095l-85.646,51.378l-164.031,23.031l105.566,-62.008l-12.402,-60.236l-56.693,-38.09Z" style="fill:#065;"/><path d="M279.908,551.477l-107.032,-13.287l-107.185,-83.268l181.594,-64.665l69.094,0.886l-87.85,57.579l-7.82,49.606l59.198,53.15Zm36.472,-160.335l114.272,16.831l98.934,69.095l-85.646,51.378l-164.031,23.031l105.566,-62.008l-12.402,-60.236l-56.693,-38.09Zm108.769,67.876l5.172,25.121l16.567,-9.938l-21.739,-15.182Zm-247.838,25.633l3.626,-23l-22.787,8.114l19.161,14.886Z" style="fill:#065;"/><path d="M253.125,551.477l63.255,0" style="fill:none;stroke:#065;stroke-width:45px;"/><path d="M55.586,322.934l26.575,18.741" style="fill:none;stroke:#065;stroke-width:45px;"/><path d="M529.585,322.934l26.575,18.741" style="fill:none;stroke:#065;stroke-width:45px;"/><path d="M304.992,454.609l-0.398,32.516" style="fill:none;stroke:#065;stroke-width:45px;"/><path d="M503.01,458.466l26.575,18.741" style="fill:none;stroke:#065;stroke-width:45px;"/><path d="M65.691,452.126l26.575,18.741" style="fill:none;stroke:#065;stroke-width:45px;"/></svg>