<?xml version="1.0" encoding="UTF-8" standalone="no"?><!DOCTYPE svg PUBLIC "-//W3C//DTD SVG 1.1//EN" "http://www.w3.org/Graphics/SVG/1.1/DTD/svg11.dtd"><svg width="100%" height="100%" viewBox="0 0 123 123" version="1.1" xmlns="http://www.w3.org/2000/svg" xmlns:xlink="http://www.w3.org/1999/xlink" xml:space="preserve" xmlns:serif="http://www.serif.com/" style="fill-rule:evenodd;clip-rule:evenodd;stroke-linecap:square;stroke-miterlimit:1.5;"><path d="M16.315,92.664l6.323,-18.517l8.129,-9.936l-3.161,-16.71l-0.452,-15.355l12.645,-5.871l11.291,-0.903l11.742,14l-0.452,18.517l0.903,7.226l8.581,1.806l5.871,9.032l2.71,4.968l0.452,8.581" style="fill:none;stroke:#000;stroke-width:8.2px;"/><path d="M59.219,29.437c0,0 3.613,-9.032 9.032,-7.226c5.419,1.806 13.549,4.516 13.549,4.516l6.774,11.291l-2.71,10.387l1.806,8.581l10.839,7.226l10.839,18.065l1.807,11.291" style="fill:none;stroke:#000;stroke-width:8.2px;"/><path d="M33.928,46.147l12.194,-7.226l11.291,7.678l-11.291,8.581l-12.194,-9.032Z" style="fill:none;stroke:#000;stroke-width:8.2px;"/><path d="M65.09,41.631l9.032,-6.774l8.581,8.581l-9.484,5.871l-8.129,-7.678Z" style="fill:none;stroke:#000;stroke-width:8.2px;"/><path d="M49.283,41.631l-3.161,9.032" style="fill:none;stroke:#000;stroke-width:8.2px;"/><path d="M75.478,37.114l1.355,10.387" style="fill:none;stroke:#000;stroke-width:8.2px;"/><path d="M43.412,73.696l10.839,-0.903l4.065,7.226l-8.129,3.613l-3.161,5.871" style="fill:none;stroke:#000;stroke-width:8.2px;"/><path d="M45.219,100.342l-0.903,4.968" style="fill:none;stroke:#000;stroke-width:8.2px;"/></svg>